<svg width="16" height="16" viewBox="0 0 16 16" fill="none" xmlns="http://www.w3.org/2000/svg">
<path fill-rule="evenodd" clip-rule="evenodd" d="M11.0126 1.51256C11.696 0.829144 12.804 0.829146 13.4874 1.51256L14.5732 2.59835C15.2566 3.28176 15.2566 4.3898 14.5732 5.07322L5.96358 13.6829C5.75328 13.8932 5.49286 14.0464 5.2069 14.1281L1.95606 15.0569C1.69416 15.1318 1.41229 15.0587 1.21969 14.8661C1.02709 14.6735 0.954049 14.3917 1.02887 14.1298L1.95769 10.8789C2.03939 10.593 2.19262 10.3325 2.40292 10.1222L11.0126 1.51256ZM12.4268 2.57322C12.3291 2.47559 12.1708 2.47559 12.0732 2.57322L10.8106 3.83578L12.25 5.27512L13.5126 4.01256C13.6102 3.91493 13.6102 3.75664 13.5126 3.65901L12.4268 2.57322ZM11.1893 6.33578L9.75002 4.89644L3.46358 11.1829C3.43354 11.2129 3.41165 11.2501 3.39997 11.291L2.84203 13.2438L4.79482 12.6858C4.83567 12.6742 4.87287 12.6523 4.90292 12.6222L11.1893 6.33578Z" fill="#24292E"/>
</svg>
