<svg width="16" height="16" viewBox="0 0 16 16" fill="none" xmlns="http://www.w3.org/2000/svg">
<path fill-rule="evenodd" clip-rule="evenodd" d="M5.49993 3.50043C4.9695 3.50043 4.46079 3.71114 4.08572 4.08621C3.71065 4.46129 3.49993 4.96999 3.49993 5.50043C3.49993 6.03086 3.71065 6.53957 4.08572 6.91464C4.46079 7.28971 4.9695 7.50043 5.49993 7.50043C6.03036 7.50043 6.53907 7.28971 6.91415 6.91464C7.28922 6.53957 7.49993 6.03086 7.49993 5.50043C7.49993 4.96999 7.28922 4.46129 6.91415 4.08621C6.53907 3.71114 6.03036 3.50043 5.49993 3.50043ZM1.99993 5.50043C1.99986 4.9203 2.14399 4.34925 2.41936 3.83864C2.69473 3.32804 3.0927 2.89389 3.57748 2.57524C4.06226 2.25659 4.61865 2.06344 5.19659 2.01317C5.77454 1.96289 6.35592 2.05706 6.88844 2.2872C7.42096 2.51735 7.88793 2.87625 8.24733 3.33164C8.60674 3.78702 8.84732 4.3246 8.94743 4.89602C9.04754 5.46745 9.00404 6.0548 8.82084 6.60524C8.63765 7.15568 8.3205 7.65196 7.89793 8.04943C8.69479 8.43601 9.38665 9.0091 9.91482 9.72006C10.443 10.431 10.7919 11.2589 10.9319 12.1334C10.9631 12.3299 10.9149 12.5308 10.7979 12.6918C10.681 12.8528 10.5049 12.9607 10.3084 12.9919C10.1119 13.0231 9.91105 12.9749 9.75005 12.8579C9.58905 12.741 9.48109 12.5649 9.44993 12.3684C9.29861 11.4298 8.81798 10.5757 8.09418 9.95925C7.37037 9.34278 6.45068 9.00422 5.49993 9.00422C4.54918 9.00422 3.6295 9.34278 2.90569 9.95925C2.18188 10.5757 1.70125 11.4298 1.54993 12.3684C1.53444 12.4657 1.49992 12.559 1.44837 12.643C1.39681 12.727 1.32922 12.8 1.24946 12.8578C1.16969 12.9157 1.07931 12.9572 0.983481 12.9801C0.887649 13.0031 0.78824 13.0069 0.69093 12.9914C0.593621 12.9759 0.500316 12.9414 0.416344 12.8898C0.332372 12.8383 0.259377 12.7707 0.201526 12.6909C0.143675 12.6112 0.102101 12.5208 0.079179 12.4249C0.0562567 12.3291 0.0524344 12.2297 0.0679304 12.1324C0.208265 11.2582 0.557305 10.4308 1.08546 9.72019C1.61362 9.0096 2.30532 8.43683 3.10193 8.05043C2.75346 7.72347 2.47584 7.32843 2.28629 6.8898C2.09673 6.45116 1.99926 5.97827 1.99993 5.50043ZM10.9999 4.00043C10.801 4.00043 10.6102 4.07944 10.4696 4.2201C10.3289 4.36075 10.2499 4.55151 10.2499 4.75043C10.2499 4.94934 10.3289 5.1401 10.4696 5.28076C10.6102 5.42141 10.801 5.50043 10.9999 5.50043C11.3382 5.50045 11.6666 5.61486 11.9318 5.82508C12.1969 6.0353 12.3832 6.32897 12.4603 6.65841C12.5374 6.98785 12.5009 7.3337 12.3567 7.63977C12.2125 7.94585 11.9691 8.19418 11.6659 8.34443C11.5409 8.40661 11.4357 8.50246 11.3622 8.62118C11.2887 8.73991 11.2498 8.87679 11.2499 9.01643V9.36843C11.2497 9.53689 11.3062 9.70052 11.4103 9.83295C11.5144 9.96538 11.6601 10.0589 11.8239 10.0984C13.0239 10.3874 13.9859 11.2984 14.3459 12.4704C14.3744 12.5649 14.4214 12.6529 14.484 12.7293C14.5467 12.8056 14.6238 12.8689 14.711 12.9154C14.7981 12.9618 14.8936 12.9906 14.9919 13.0001C15.0902 13.0096 15.1894 12.9995 15.2839 12.9706C15.3783 12.9416 15.4661 12.8943 15.5421 12.8313C15.6182 12.7683 15.6811 12.6909 15.7272 12.6035C15.7733 12.5162 15.8017 12.4206 15.8107 12.3222C15.8198 12.2239 15.8093 12.1247 15.7799 12.0304C15.5797 11.381 15.2495 10.7791 14.8094 10.2614C14.3693 9.7436 13.8285 9.32071 13.2199 9.01843C13.6108 8.58837 13.8685 8.054 13.9614 7.48028C14.0544 6.90656 13.9787 6.31819 13.7436 5.78668C13.5084 5.25517 13.1239 4.80341 12.6369 4.4863C12.1498 4.16919 11.5811 4.00039 10.9999 4.00043Z" fill="#24292E"/>
</svg>
